<svg xmlns="http://www.w3.org/2000/svg" xmlns:xlink="http://www.w3.org/1999/xlink" width="250" zoomAndPan="magnify" viewBox="0 0 187.5 74.999997" height="100" preserveAspectRatio="xMidYMid meet" version="1.0"><defs><g/><clipPath id="8030bd5bc5"><path d="M 10.859375 20.101562 L 176.609375 20.101562 L 176.609375 55.351562 L 10.859375 55.351562 Z M 10.859375 20.101562 " clip-rule="nonzero"/></clipPath></defs><g clip-path="url(#8030bd5bc5)"><path fill="#ffdcba" d="M 146.828125 26.375 C 149.28125 26.253906 151.71875 26.066406 154.167969 25.917969 C 159.074219 25.648438 163.933594 25.203125 168.8125 24.828125 C 168.574219 26.074219 168.351562 27.371094 169.058594 28.445312 C 169.058594 28.445312 169.8125 28.347656 170.746094 28.167969 C 171.683594 28 172.808594 27.796875 173.558594 27.660156 C 179.898438 29.503906 179.023438 33.832031 176.242188 37.320312 C 175.519531 38.054688 174.699219 38.886719 173.773438 39.734375 C 172.988281 39.753906 172.207031 39.769531 171.433594 39.785156 C 167.90625 39.882812 164.429688 40.050781 160.925781 40.34375 C 157.441406 40.554688 153.945312 40.839844 150.402344 41.152344 C 143.328125 41.699219 141.230469 42.320312 133.582031 42.414062 C 122.851562 42.246094 144.238281 41.582031 133.582031 42.414062 C 146.234375 41.972656 125.664062 43.320312 138.539062 42.621094 C 141.761719 42.460938 139.8125 42.300781 143.015625 42.140625 C 146.222656 42.023438 149.417969 41.90625 152.59375 41.792969 C 155.78125 41.679688 158.9375 41.664062 162.101562 41.617188 C 165.273438 41.542969 168.410156 41.5625 171.558594 41.59375 C 169.1875 43.371094 166.3125 44.875 162.824219 45.378906 C 154.515625 45.917969 146.316406 46.453125 138.191406 46.984375 C 138.152344 46.390625 131.839844 47.472656 126.253906 47.828125 C 120.671875 48.144531 115.175781 47.050781 109.640625 47.179688 C 98.5625 47.472656 76.515625 50.886719 76.363281 51.28125 C 76.304688 51.285156 76.25 51.292969 76.199219 51.296875 C 76.25 51.292969 76.304688 51.285156 76.363281 51.28125 C 76.222656 51.625 76.328125 51.878906 77.75 51.78125 C 76.328125 51.878906 76.222656 51.628906 76.363281 51.28125 C 98.820312 49.128906 114.6875 48.105469 137.265625 47.050781 C 119.753906 48.214844 107.796875 49.589844 90.574219 51.015625 C 73.351562 52.429688 56.03125 53.863281 38.167969 54.953125 C 36.648438 55.042969 33.601562 55.230469 32.078125 55.320312 C 25.921875 53.914062 19.800781 53.679688 13.726562 54.027344 C 15.140625 50.988281 8.84375 45.4375 21.058594 45.917969 C 21.039062 45.328125 20.996094 44.148438 20.976562 43.558594 C 14.824219 42.4375 10.59375 39.863281 9.242188 37.21875 C 8.625 35.902344 8.703125 34.53125 9.816406 33.3125 C 10.972656 32.085938 12.902344 31.015625 15.929688 30.25 C 29.515625 27.109375 47.824219 28.371094 64.464844 26.074219 C 76.585938 24.675781 88.6875 23.222656 100.855469 23.464844 C 117.609375 23.945312 130.582031 21.820312 147.289062 22.347656 C 150.316406 22.300781 154.417969 21.5 158.160156 20.910156 C 161.882812 20.277344 165.207031 19.769531 166.78125 20.449219 C 168.996094 20.988281 169.207031 22.222656 169.015625 23.660156 C 164.082031 24.25 159.179688 24.929688 154.234375 25.394531 C 151.765625 25.644531 149.3125 25.925781 146.847656 26.136719 C 144.382812 26.339844 141.921875 26.542969 139.46875 26.742188 " fill-opacity="1" fill-rule="nonzero"/></g><g fill="#ffffff" fill-opacity="1"><g transform="translate(32.722769, 46.550199)"><g><path d="M 14.617188 -11.96875 C 18.902344 -13.835938 23.152344 -18.867188 22.539062 -23.765625 C 22.371094 -25.394531 21.179688 -27.367188 19.277344 -27.0625 C 18.257812 -26.890625 17.269531 -25.804688 16.558594 -25.125 C 15.640625 -24.207031 14.753906 -23.21875 13.9375 -22.199219 C 12.238281 -20.125 10.675781 -17.882812 9.246094 -15.605469 C 8.601562 -14.515625 7.988281 -13.394531 7.410156 -12.273438 C 7.070312 -11.660156 6.765625 -11.050781 6.492188 -10.402344 C 6.253906 -9.894531 5.78125 -9.214844 5.710938 -8.636719 C 5.8125 -9.246094 6.460938 -10.234375 6.765625 -10.84375 C 7.171875 -11.695312 7.617188 -12.546875 8.058594 -13.394531 C 9.007812 -15.0625 10.027344 -16.691406 11.117188 -18.257812 C 8.226562 -14.007812 5.78125 -9.316406 4.316406 -4.351562 L 4.453125 -5.644531 C 4.453125 -5.746094 4.625 -7.378906 4.589844 -7.34375 C 4.523438 -7.277344 4.488281 -7.207031 4.453125 -7.140625 C 4.625 -8.226562 5.066406 -9.453125 5.371094 -10.539062 C 5.746094 -11.898438 6.015625 -13.257812 6.390625 -14.617188 C 6.800781 -16.046875 7.308594 -17.40625 7.886719 -18.765625 C 8.058594 -19.074219 9.65625 -22.539062 9.824219 -22.640625 C 9.585938 -22.539062 8.195312 -19.652344 7.851562 -18.9375 C 8.667969 -20.839844 9.621094 -22.675781 10.84375 -24.34375 C 10.742188 -24.171875 10.605469 -23.933594 10.640625 -23.933594 C 10.742188 -23.898438 11.628906 -25.054688 11.558594 -25.089844 C 11.492188 -25.089844 11.421875 -25.054688 11.390625 -25.023438 C 11.59375 -25.261719 11.796875 -25.328125 11.796875 -25.734375 C 11.761719 -26.28125 11.253906 -27.027344 10.742188 -27.230469 C 9.621094 -27.640625 8.875 -26.179688 8.261719 -25.703125 C 7.277344 -24.886719 6.832031 -23.765625 6.222656 -22.640625 C 6.085938 -22.335938 4.453125 -18.734375 4.554688 -18.699219 L 4.316406 -17.949219 C 4.285156 -17.984375 4.417969 -18.1875 4.351562 -18.222656 C 4.011719 -18.289062 3.160156 -15.265625 3.09375 -15.027344 C 2.992188 -14.347656 2.820312 -13.734375 2.617188 -13.054688 C 2.515625 -12.714844 2.378906 -12.339844 2.3125 -11.96875 C 2.277344 -11.933594 2.175781 -11.050781 2.3125 -11.390625 C 2.3125 -11.289062 2.277344 -11.21875 2.277344 -11.152344 C 2.242188 -11.183594 2.242188 -11.21875 2.242188 -11.253906 C 2.140625 -11.21875 2.039062 -10.164062 2.003906 -10.027344 C 1.800781 -9.484375 1.597656 -8.976562 1.460938 -8.398438 C 1.121094 -7.003906 1.054688 -5.542969 0.984375 -4.113281 C 0.953125 -2.921875 0.679688 -1.292969 1.191406 -0.171875 C 1.632812 0.917969 3.027344 1.632812 3.976562 0.613281 L 4.078125 0.816406 C 4.316406 -0.542969 4.589844 -1.871094 4.996094 -3.195312 C 5.8125 -5.78125 6.933594 -8.160156 7.988281 -10.640625 C 8.328125 -11.457031 8.976562 -12.101562 9.453125 -12.886719 C 10.234375 -14.210938 11.015625 -15.503906 11.863281 -16.792969 C 13.328125 -19.074219 14.992188 -21.351562 16.929688 -23.253906 C 17.304688 -23.628906 18.019531 -24.511719 18.628906 -24.34375 C 19.546875 -24.105469 19.105469 -22.03125 18.664062 -21.011719 L 18.628906 -20.910156 L 18.597656 -20.875 L 18.597656 -20.839844 C 18.324219 -20.09375 17.949219 -19.378906 17.578125 -18.664062 C 17.578125 -18.699219 17.847656 -19.3125 17.847656 -19.3125 C 17.679688 -19.34375 16.589844 -17.476562 16.421875 -17.238281 C 15.742188 -16.320312 15.027344 -15.433594 14.210938 -14.652344 C 13.464844 -13.90625 12.648438 -13.257812 11.796875 -12.648438 C 11.289062 -12.339844 10.574219 -12.171875 10.132812 -11.832031 C 9.144531 -11.050781 11.628906 -9.453125 12.511719 -9.6875 C 13.257812 -9.894531 13.804688 -10.335938 14.652344 -10.234375 C 15.0625 -10.164062 15.433594 -10.027344 15.742188 -9.722656 C 15.773438 -9.722656 16.183594 -9.246094 16.285156 -9.078125 L 16.285156 -9.179688 C 16.453125 -8.804688 16.523438 -8.429688 16.558594 -8.058594 C 16.523438 -8.226562 16.386719 -8.464844 16.351562 -8.703125 C 16.351562 -8.328125 16.488281 -7.683594 16.558594 -7.648438 C 16.761719 -7.445312 16.351562 -6.085938 16.148438 -5.644531 C 15.742188 -4.757812 15.128906 -3.945312 14.484375 -3.195312 C 13.089844 -1.632812 11.390625 -0.375 9.585938 0.714844 C 7.683594 1.871094 5.609375 2.855469 3.433594 3.5 C 2.515625 3.808594 1.5625 3.945312 0.578125 4.113281 C 0.171875 4.183594 -0.203125 4.148438 0.136719 4.554688 C 0.476562 5.03125 1.9375 5.167969 2.480469 5.234375 C 3.5 5.441406 4.523438 5.371094 5.574219 5.167969 C 7.277344 4.828125 9.042969 4.214844 10.605469 3.5 C 14.347656 1.835938 18.050781 -0.984375 19.34375 -4.996094 C 19.71875 -6.152344 19.957031 -7.511719 19.71875 -8.703125 C 19.207031 -11.117188 16.898438 -12.171875 14.617188 -11.96875 Z M 16.113281 -3.46875 C 15.875 -2.820312 15.300781 -2.140625 14.789062 -1.699219 C 14.3125 -1.292969 13.804688 -1.089844 13.394531 -0.78125 L 14.550781 -2.003906 C 15.402344 -2.992188 16.046875 -3.910156 16.625 -5.101562 L 16.792969 -5.507812 C 16.726562 -4.929688 16.351562 -4.011719 16.113281 -3.46875 Z M 20.332031 -17.949219 C 20.671875 -18.527344 21.179688 -19.277344 21.519531 -20.023438 C 21.179688 -18.902344 20.773438 -17.984375 19.921875 -17.03125 C 19.617188 -16.726562 19.34375 -16.386719 19.039062 -16.046875 C 19.515625 -16.660156 19.957031 -17.269531 20.332031 -17.949219 Z M 2.449219 -7.410156 C 2.242188 -6.933594 2.140625 -6.1875 2.175781 -5.675781 C 2.109375 -6.425781 2.210938 -7.445312 2.414062 -8.160156 C 2.515625 -8.464844 2.753906 -8.839844 2.921875 -9.179688 C 2.921875 -9.007812 2.921875 -8.804688 2.890625 -8.601562 C 2.820312 -8.160156 2.617188 -7.785156 2.449219 -7.410156 Z M 7.242188 -17.441406 C 7.242188 -17.507812 7.277344 -17.578125 7.308594 -17.644531 Z M 13.769531 -21.828125 L 13.53125 -21.589844 Z M 7.785156 -18.800781 C 7.785156 -18.835938 7.820312 -18.902344 7.851562 -18.9375 Z M 7.785156 -18.800781 "/></g></g></g><g fill="#ffffff" fill-opacity="1"><g transform="translate(54.582264, 46.550199)"><g><path d="M 13.597656 -8.667969 C 13.121094 -8.160156 12.816406 -7.308594 12.441406 -6.699219 C 11.863281 -5.710938 11.289062 -4.757812 10.675781 -3.808594 C 9.519531 -1.972656 8.363281 -0.101562 6.96875 1.5625 C 6.390625 2.277344 5.167969 4.011719 4.011719 3.875 C 3.160156 3.738281 3.160156 2.277344 3.160156 1.632812 C 3.160156 1.089844 3.195312 0.542969 3.265625 0.0351562 C 3.296875 -0.273438 3.570312 -1.292969 3.398438 -1.5625 L 3.128906 -0.542969 C 3.160156 -0.953125 3.230469 -1.394531 3.332031 -1.800781 C 3.296875 -1.871094 3.605469 -2.820312 3.671875 -3.128906 C 3.839844 -3.808594 4.011719 -4.488281 4.214844 -5.167969 C 4.386719 -5.847656 4.554688 -6.492188 4.757812 -7.140625 C 4.929688 -7.75 5.167969 -8.058594 5.542969 -8.535156 C 7.070312 -10.4375 8.464844 -12.511719 9.757812 -14.585938 C 10.234375 -15.367188 10.539062 -16.046875 11.117188 -16.691406 C 11.96875 -17.578125 12.546875 -18.902344 13.089844 -19.992188 C 14.007812 -21.757812 15.230469 -24.207031 15.027344 -26.28125 L 15.027344 -26.449219 L 14.992188 -26.484375 C 14.789062 -27.808594 13.566406 -29.375 12.070312 -28.898438 C 11.289062 -28.660156 10.710938 -27.84375 10.234375 -27.265625 L 9.453125 -26.210938 C 9.28125 -26.007812 9.042969 -25.5 8.875 -25.226562 L 8.90625 -25.261719 L 7.820312 -23.390625 L 8.089844 -23.96875 C 7.921875 -24.003906 7.171875 -22.539062 7.070312 -22.371094 C 6.699219 -21.722656 6.359375 -21.078125 6.050781 -20.433594 C 5.371094 -19.074219 4.691406 -17.679688 4.25 -16.21875 C 3.773438 -14.753906 3.230469 -13.328125 2.71875 -11.863281 C 2.449219 -11.082031 2.175781 -10.265625 1.9375 -9.484375 C 1.734375 -8.839844 1.257812 -7.785156 1.359375 -7.105469 L 1.460938 -7.105469 C 1.359375 -6.867188 1.292969 -6.628906 1.222656 -6.390625 C 1.257812 -6.59375 1.257812 -6.832031 1.292969 -6.902344 C 1.121094 -6.664062 1.15625 -5.847656 1.121094 -5.78125 C 0.679688 -3.945312 0.171875 -2.109375 0.0351562 -0.203125 C -0.0664062 1.597656 -0.0664062 3.976562 1.359375 5.304688 C 2.957031 6.765625 4.792969 5.78125 6.121094 4.523438 C 7.683594 2.992188 9.007812 1.191406 10.234375 -0.578125 C 11.355469 -2.210938 12.238281 -3.945312 13.257812 -5.574219 C 13.667969 -6.253906 14.109375 -6.933594 14.3125 -7.683594 C 14.449219 -8.226562 14.382812 -9.484375 13.597656 -8.667969 Z M 9.347656 -20.839844 C 10.027344 -22.472656 10.710938 -24.136719 11.660156 -25.667969 C 11.898438 -26.042969 13.429688 -28.082031 13.359375 -26.28125 L 13.359375 -26.246094 C 13.292969 -24.34375 12.070312 -22.335938 11.253906 -20.703125 L 9.824219 -18.050781 C 9.347656 -17.238281 8.535156 -16.21875 8.261719 -15.332031 C 8.464844 -15.875 9.078125 -16.660156 9.382812 -17.167969 C 9.894531 -18.019531 10.335938 -18.867188 10.8125 -19.71875 C 11.59375 -21.214844 12.441406 -22.777344 13.019531 -24.410156 C 11.492188 -19.855469 8.636719 -15.605469 6.121094 -11.558594 C 7.105469 -14.550781 8.089844 -17.816406 9.347656 -20.839844 Z M 8.261719 -23.21875 C 8.601562 -23.867188 9.214844 -24.410156 9.554688 -25.023438 C 8.839844 -23.59375 7.957031 -22.300781 7.207031 -20.941406 C 7.207031 -20.976562 7.207031 -21.042969 7.242188 -21.078125 C 7.546875 -21.828125 7.886719 -22.507812 8.261719 -23.21875 Z M 1.835938 -5.644531 C 1.800781 -5.574219 1.800781 -5.542969 1.800781 -5.542969 C 1.394531 -4.589844 1.359375 -3.296875 1.15625 -2.277344 C 1.121094 -2.039062 1.054688 -1.835938 1.054688 -1.597656 L 1.054688 -1.699219 L 0.953125 -0.613281 C 1.019531 -1.835938 1.15625 -3.09375 1.394531 -4.285156 L 1.394531 -4.25 C 1.496094 -5.03125 1.664062 -5.746094 1.800781 -5.746094 C 1.871094 -5.78125 1.871094 -5.675781 1.835938 -5.644531 Z M 1.835938 -5.644531 "/></g></g></g><g fill="#ffffff" fill-opacity="1"><g transform="translate(66.616882, 46.550199)"><g><path d="M 15.640625 -8.464844 C 15.640625 -8.464844 15.671875 -8.429688 15.640625 -8.5 C 15.46875 -8.738281 15.230469 -8.566406 14.992188 -8.5 C 14.007812 -8.296875 12.988281 -8.058594 11.96875 -7.886719 C 12.339844 -9.113281 12.714844 -10.402344 12.851562 -11.660156 C 12.917969 -12.136719 12.953125 -12.648438 12.851562 -13.121094 C 12.78125 -13.429688 12.679688 -13.734375 12.511719 -14.007812 C 12.511719 -14.007812 12.101562 -14.515625 12.207031 -14.246094 L 12.171875 -14.277344 L 12.035156 -14.550781 L 12.171875 -14.414062 C 12.207031 -14.617188 11.628906 -14.992188 11.628906 -14.992188 C 10.777344 -15.84375 9.621094 -16.488281 8.464844 -15.84375 C 7.75 -15.433594 7.171875 -14.753906 6.699219 -14.074219 C 6.527344 -13.835938 6.359375 -13.566406 6.222656 -13.292969 C 6.085938 -13.019531 5.882812 -12.136719 5.675781 -12 C 5.507812 -11.863281 4.996094 -11.832031 4.757812 -11.695312 C 4.417969 -11.558594 4.113281 -11.390625 3.839844 -11.183594 C 3.195312 -10.777344 2.6875 -10.199219 2.210938 -9.621094 C 1.394531 -8.535156 0.984375 -7.308594 0.40625 -6.222656 C -0.679688 -4.148438 0.511719 -1.429688 2.515625 -0.441406 C 3.160156 -0.136719 3.910156 0 4.589844 -0.0664062 C 5.304688 -0.171875 5.984375 -0.542969 6.527344 -0.953125 C 7.039062 -1.324219 8.160156 -2.003906 8.363281 -2.582031 C 8.363281 -2.617188 8.296875 -2.582031 8.195312 -2.480469 L 9.179688 -3.636719 C 9.214844 -3.605469 8.941406 -3.265625 8.941406 -3.265625 C 9.179688 -3.160156 10.402344 -4.964844 10.539062 -5.101562 C 10.777344 -5.507812 11.015625 -5.949219 11.289062 -6.359375 C 11.523438 -6.664062 11.457031 -6.628906 11.796875 -6.765625 C 11.761719 -6.730469 12.207031 -6.867188 12.273438 -6.867188 C 12.648438 -6.933594 16.625 -7.207031 15.640625 -8.464844 Z M 3.875 -1.597656 L 3.839844 -1.597656 C 1.019531 -1.191406 4.285156 -7.171875 4.351562 -7.511719 L 4.148438 -7.207031 C 4.65625 -8.226562 5.132812 -9.042969 5.371094 -9.316406 C 5.746094 -7.617188 7.582031 -6.96875 9.078125 -6.765625 C 8.089844 -4.792969 6.253906 -2.039062 3.875 -1.597656 Z M 10.574219 -11.015625 C 10.335938 -10.0625 10.132812 -8.804688 9.621094 -7.957031 C 9.453125 -7.617188 9.554688 -7.71875 9.214844 -7.648438 C 9.007812 -7.582031 8.566406 -7.648438 8.363281 -7.683594 C 7.988281 -7.71875 7.546875 -7.785156 7.277344 -8.023438 C 6.800781 -8.429688 6.867188 -9.078125 6.933594 -9.65625 C 7.003906 -10.234375 7.171875 -10.777344 7.378906 -11.320312 C 7.480469 -11.523438 8.125 -12.613281 8.023438 -12.816406 C 7.988281 -12.917969 7.617188 -12.308594 7.582031 -12.273438 C 7.785156 -12.648438 7.988281 -12.851562 8.160156 -13.089844 C 8.125 -13.089844 8.160156 -13.121094 8.195312 -13.191406 L 8.195312 -13.15625 L 8.226562 -13.226562 C 8.226562 -13.226562 8.226562 -13.257812 8.261719 -13.257812 C 8.769531 -13.9375 10.027344 -15.46875 10.710938 -14.414062 C 11.21875 -13.53125 10.742188 -11.863281 10.574219 -11.015625 Z M 8.226562 -13.226562 L 8.261719 -13.257812 C 8.261719 -13.226562 8.226562 -13.226562 8.226562 -13.226562 Z M 8.226562 -13.226562 "/></g></g></g><g fill="#ffffff" fill-opacity="1"><g transform="translate(79.909353, 46.550199)"><g><path d="M 12.308594 -6.289062 C 12.613281 -6.730469 13.835938 -8.023438 13.328125 -8.601562 C 12.648438 -9.28125 10.878906 -6.460938 10.605469 -6.121094 C 10.0625 -5.40625 9.484375 -4.726562 8.941406 -4.046875 C 8.636719 -3.671875 8.328125 -3.296875 7.988281 -2.957031 C 7.921875 -2.890625 7.277344 -2.074219 7.34375 -2.074219 C 7.445312 -2.109375 7.546875 -2.175781 7.648438 -2.242188 C 7.070312 -1.632812 6.289062 -1.089844 5.574219 -0.542969 C 5.101562 -0.203125 4.183594 0.542969 3.605469 0.136719 C 3.367188 0 3.296875 -0.339844 3.230469 -0.578125 C 2.992188 -1.632812 3.160156 -2.890625 3.332031 -3.976562 C 3.707031 -6.253906 4.453125 -8.5 5.371094 -10.640625 C 5.8125 -11.628906 6.253906 -12.613281 7.039062 -13.359375 C 7.105469 -13.429688 7.242188 -13.292969 7.277344 -13.328125 C 7.34375 -13.359375 7.070312 -13.464844 7.039062 -13.429688 C 6.664062 -13.226562 6.425781 -12.816406 6.222656 -12.441406 C 5.609375 -11.457031 5.132812 -10.371094 4.726562 -9.28125 C 5.03125 -10.132812 5.371094 -10.980469 5.78125 -11.832031 C 6.015625 -12.273438 6.289062 -12.988281 6.730469 -13.328125 C 7.886719 -14.246094 7.445312 -11.21875 7.308594 -10.777344 C 7.308594 -10.8125 7.445312 -11.558594 7.410156 -11.558594 C 7.34375 -11.558594 6.867188 -9.824219 6.867188 -9.824219 L 7.039062 -9.960938 C 6.867188 -9.6875 6.527344 -9.484375 6.96875 -9.179688 C 7.511719 -8.804688 8.566406 -9.453125 8.804688 -9.925781 C 9.042969 -10.4375 9.113281 -11.117188 9.144531 -11.628906 C 9.214844 -12.511719 8.976562 -13.019531 8.667969 -13.699219 C 8.328125 -14.414062 8.023438 -14.855469 7.105469 -14.992188 C 6.359375 -15.09375 5.675781 -14.789062 5.101562 -14.347656 C 4.25 -13.734375 3.605469 -12.953125 3.058594 -12.070312 C 2.921875 -11.832031 1.699219 -9.347656 1.734375 -9.316406 L 1.871094 -9.484375 C 1.699219 -9.113281 1.597656 -8.738281 1.460938 -8.398438 C 1.429688 -8.398438 1.53125 -8.703125 1.496094 -8.703125 C 1.292969 -8.738281 0.679688 -6.867188 0.644531 -6.699219 C 0.40625 -5.984375 0.238281 -5.269531 0.203125 -4.523438 C 0.171875 -3.707031 0.0351562 -2.890625 0 -2.039062 C 0 -1.597656 0 -1.121094 0.0664062 -0.679688 C 0.0664062 -0.542969 0.339844 0.171875 0.339844 -0.0351562 L 0.511719 0.542969 C 0.476562 0.511719 0.339844 0.171875 0.339844 0.171875 C 0.171875 0.375 1.089844 1.699219 1.292969 1.902344 C 1.5625 2.210938 1.972656 2.347656 2.378906 2.414062 C 3.738281 2.582031 5.03125 1.800781 6.015625 0.984375 C 7.71875 -0.441406 9.382812 -2.210938 10.640625 -4.046875 C 11.152344 -4.828125 11.730469 -5.542969 12.308594 -6.289062 Z M 2.347656 -8.769531 C 2.277344 -8.429688 2.175781 -8.058594 2.039062 -7.75 C 1.9375 -7.511719 1.632812 -7.308594 1.597656 -7.140625 C 1.664062 -7.71875 2.109375 -8.296875 2.378906 -8.941406 C 2.378906 -8.875 2.347656 -8.804688 2.347656 -8.769531 Z M 1.089844 -4.792969 C 0.953125 -4.554688 0.953125 -4.113281 0.953125 -3.738281 C 0.917969 -4.148438 0.917969 -4.589844 1.054688 -4.996094 C 1.054688 -4.996094 1.15625 -4.863281 1.089844 -4.792969 Z M 3.535156 -5.609375 C 3.671875 -6.152344 3.839844 -6.699219 4.011719 -7.242188 Z M 1.15625 -5.441406 C 1.121094 -5.335938 1.054688 -5.203125 1.054688 -5.132812 C 1.054688 -5.304688 1.054688 -5.472656 1.222656 -5.542969 Z M 4.148438 -7.648438 C 4.113281 -7.617188 4.113281 -7.617188 4.113281 -7.582031 C 4.113281 -7.648438 4.113281 -7.71875 4.148438 -7.785156 Z M 4.148438 -7.648438 "/></g></g></g><g fill="#ffffff" fill-opacity="1"><g transform="translate(90.856095, 46.550199)"><g><path d="M 17.984375 -8.226562 C 17.949219 -8.839844 17.507812 -8.667969 17.203125 -8.398438 C 17.03125 -8.226562 14.824219 -5.78125 14.925781 -5.609375 C 14.992188 -5.609375 15.09375 -5.609375 15.164062 -5.675781 C 14.515625 -5.03125 13.496094 -4.417969 12.714844 -3.839844 C 11.933594 -3.230469 11.050781 -2.109375 9.960938 -2.039062 C 9.859375 -2.039062 9.757812 -2.003906 9.621094 -2.039062 C 9.144531 -2.109375 7.988281 -4.183594 7.886719 -4.625 C 7.921875 -4.285156 8.703125 -2.753906 8.90625 -2.414062 C 8.125 -3.296875 7.71875 -4.625 7.511719 -5.8125 C 7.546875 -5.710938 7.617188 -5.609375 7.648438 -5.609375 C 7.75 -5.644531 7.617188 -6.324219 7.617188 -6.359375 C 7.683594 -6.425781 8.195312 -6.5625 8.328125 -6.628906 C 9.078125 -6.933594 9.792969 -7.308594 10.503906 -7.71875 C 11.832031 -8.429688 13.15625 -9.28125 14.246094 -10.335938 C 15.433594 -11.523438 16.453125 -13.191406 14.890625 -14.550781 C 13.328125 -15.875 11.117188 -14.109375 9.925781 -13.054688 C 8.769531 -12.035156 7.785156 -10.84375 6.867188 -9.621094 C 6.460938 -9.007812 6.015625 -8.429688 5.644531 -7.820312 C 5.40625 -7.480469 4.65625 -6.628906 4.726562 -6.222656 C 4.726562 -6.222656 5.371094 -7.003906 5.40625 -7.039062 C 5.167969 -6.699219 4.929688 -6.324219 4.726562 -5.949219 C 4.726562 -5.984375 4.183594 -5.234375 4.113281 -5.101562 L 3.195312 -3.5 C 3.570312 -5.101562 4.011719 -6.699219 4.488281 -8.296875 C 4.726562 -9.113281 4.929688 -9.585938 5.472656 -10.234375 C 5.949219 -10.8125 6.425781 -11.390625 6.867188 -11.96875 C 7.886719 -13.257812 8.804688 -14.652344 9.722656 -16.046875 C 10.402344 -17.066406 10.914062 -18.394531 11.695312 -19.242188 C 12.648438 -20.363281 13.464844 -21.859375 13.9375 -23.289062 C 14.210938 -24.070312 14.109375 -24.714844 13.734375 -25.5 C 13.019531 -26.890625 11.59375 -28.148438 10.027344 -27.4375 C 8.738281 -26.859375 7.820312 -25.53125 7.140625 -24.34375 C 6.699219 -23.59375 6.289062 -22.8125 5.949219 -21.996094 L 5.269531 -20.570312 C 5.167969 -20.296875 5.066406 -19.855469 4.964844 -19.617188 C 4.964844 -19.582031 4.929688 -19.546875 4.929688 -19.546875 C 4.65625 -18.867188 4.453125 -18.222656 4.214844 -17.542969 C 4.183594 -17.578125 4.386719 -18.222656 4.386719 -18.222656 C 4.214844 -18.222656 3.671875 -16.589844 3.605469 -16.386719 C 3.296875 -15.570312 3.027344 -14.753906 2.753906 -13.90625 C 2.242188 -12.375 1.835938 -10.8125 1.53125 -9.214844 C 1.257812 -7.480469 0.746094 -5.78125 0.375 -4.078125 C 0.238281 -3.332031 0 -2.582031 0 -1.835938 C 0 -1.429688 0.0664062 -0.984375 0.304688 -0.644531 C 0.375 -0.578125 0.953125 -0.101562 0.953125 -0.136719 C 0.953125 -0.136719 0.917969 -0.171875 0.917969 -0.203125 C 1.089844 -0.0664062 1.429688 0.0351562 1.699219 0.0664062 C 1.460938 0.0664062 1.15625 0.0351562 1.089844 -0.0664062 C 1.324219 0.273438 2.242188 0.0351562 2.3125 0.0351562 C 3.09375 -0.136719 3.265625 -1.222656 3.671875 -1.835938 L 5.304688 -4.554688 C 5.441406 -3.839844 5.710938 -3.027344 6.050781 -2.414062 C 6.121094 -2.242188 7.105469 -0.882812 7.171875 -0.953125 C 7.171875 -0.984375 7.140625 -1.054688 7.140625 -1.089844 C 7.277344 -0.917969 7.410156 -0.78125 7.582031 -0.679688 C 7.546875 -0.644531 7.445312 -0.78125 7.410156 -0.714844 C 7.207031 -0.40625 8.667969 0.101562 8.90625 0.101562 C 9.382812 0.0664062 9.792969 -0.273438 10.234375 -0.441406 C 10.605469 -0.613281 10.980469 -0.746094 11.320312 -1.019531 C 11.730469 -1.359375 11.289062 -1.15625 11.558594 -1.359375 L 11.558594 -1.292969 C 11.660156 -1.429688 13.191406 -2.277344 13.257812 -2.347656 C 14.039062 -2.921875 14.652344 -3.707031 15.332031 -4.417969 C 15.910156 -4.996094 16.386719 -5.644531 16.863281 -6.253906 C 17.371094 -6.832031 18.050781 -7.308594 17.984375 -8.195312 Z M 10.605469 -24.816406 C 10.945312 -25.292969 11.933594 -26.484375 12.546875 -25.667969 C 13.15625 -24.851562 12.101562 -22.914062 11.730469 -22.132812 C 11.21875 -20.976562 10.574219 -19.855469 9.925781 -18.765625 L 9.007812 -17.269531 C 8.667969 -16.761719 8.226562 -16.285156 8.023438 -15.773438 C 8.160156 -16.011719 8.429688 -16.320312 8.601562 -16.523438 L 9.347656 -17.710938 C 9.925781 -18.628906 10.472656 -19.546875 10.980469 -20.5 C 11.253906 -20.941406 11.523438 -21.453125 11.832031 -21.996094 C 11.492188 -21.28125 11.117188 -20.601562 10.742188 -19.921875 C 9.246094 -17.203125 7.511719 -14.652344 5.644531 -12.207031 C 6.253906 -14.414062 6.902344 -16.625 7.71875 -18.800781 C 8.5 -20.839844 9.28125 -23.050781 10.605469 -24.816406 Z M 7.207031 -7.308594 C 8.328125 -8.875 9.484375 -10.402344 10.8125 -11.796875 C 11.117188 -12.136719 12.816406 -14.074219 13.394531 -13.667969 C 13.9375 -13.257812 12 -11.050781 11.730469 -10.742188 C 10.472656 -9.382812 8.941406 -7.988281 7.207031 -7.308594 Z M 7.410156 -19.515625 C 7.820312 -20.5 8.195312 -21.519531 8.667969 -22.539062 C 8.703125 -22.675781 9.042969 -23.117188 9.214844 -23.425781 C 9.042969 -22.980469 8.535156 -22.234375 8.464844 -22.03125 C 7.921875 -20.636719 7.511719 -19.207031 7.039062 -17.78125 C 6.492188 -16.082031 5.949219 -14.449219 5.507812 -12.75 L 5.574219 -13.019531 L 5.542969 -12.988281 C 5.542969 -13.019531 5.574219 -13.019531 5.574219 -13.054688 C 6.015625 -15.195312 6.5625 -17.476562 7.410156 -19.515625 Z M 4.964844 -19.617188 L 4.929688 -19.582031 C 4.964844 -19.582031 4.964844 -19.617188 4.964844 -19.617188 Z M 4.929688 -19.546875 L 4.929688 -19.582031 Z M 4.929688 -19.546875 "/></g></g></g><g fill="#ffffff" fill-opacity="1"><g transform="translate(106.358318, 46.550199)"><g><path d="M 16.589844 -8.125 C 16.453125 -9.824219 14.007812 -6.765625 13.871094 -6.664062 C 13.464844 -6.324219 13.089844 -6.015625 12.613281 -5.78125 C 12.136719 -5.574219 11.695312 -5.101562 11.21875 -5.03125 C 10.945312 -4.964844 10.265625 -4.929688 9.996094 -5.066406 C 9.417969 -5.371094 10.027344 -6.425781 10.199219 -6.902344 C 10.234375 -6.96875 10.097656 -6.933594 10.164062 -7.140625 L 10.371094 -7.277344 L 10.980469 -7.921875 C 11.558594 -8.535156 12.339844 -8.804688 12.953125 -9.347656 C 13.15625 -9.519531 13.292969 -9.65625 13.359375 -9.925781 C 13.496094 -11.015625 11.96875 -11.050781 11.320312 -10.605469 C 10.300781 -9.996094 9.65625 -9.007812 8.941406 -8.195312 L 7.820312 -7.039062 C 7.378906 -6.527344 6.765625 -6.085938 6.425781 -5.472656 C 6.289062 -5.269531 6.289062 -5.03125 6.085938 -4.792969 C 5.882812 -4.589844 5.644531 -4.386719 5.472656 -4.113281 C 5.066406 -3.605469 4.691406 -3.058594 4.316406 -2.515625 C 4.351562 -2.855469 4.078125 -5.371094 3.945312 -6.765625 C 3.945312 -6.359375 3.976562 -5.914062 3.976562 -5.847656 L 3.910156 -6.867188 L 3.910156 -6.902344 C 3.839844 -7.480469 3.773438 -8.089844 3.605469 -8.667969 L 3.707031 -8.429688 C 3.738281 -8.398438 3.707031 -8.875 3.671875 -8.976562 C 3.636719 -9.078125 3.46875 -9.042969 3.5 -8.941406 C 3.398438 -9.144531 3.570312 -9.214844 3.367188 -9.453125 C 3.09375 -9.824219 2.550781 -9.792969 2.175781 -9.65625 C 1.871094 -9.554688 1.597656 -9.28125 1.460938 -9.179688 C 1.121094 -8.976562 0.78125 -8.90625 0.644531 -8.398438 C 0.542969 -7.988281 1.15625 -6.050781 1.054688 -5.882812 L 1.089844 -5.914062 C 1.121094 -5.78125 1.121094 -5.644531 1.121094 -5.542969 C 1.089844 -5.542969 1.089844 -5.609375 1.089844 -5.644531 C 1.089844 -5.644531 0.917969 -5.234375 0.917969 -5.167969 C 0.816406 -4.691406 0.917969 -4.417969 0.953125 -3.976562 C 1.019531 -3.605469 0.953125 -3.296875 0.953125 -2.921875 C 0.953125 -2.582031 1.019531 -2.480469 1.054688 -2.378906 C 1.019531 -2.449219 1.089844 -1.835938 1.089844 -1.835938 C 1.054688 -1.496094 0.816406 -1.089844 0.816406 -0.679688 C 0.746094 0.40625 0.679688 1.871094 1.597656 2.550781 C 2.242188 3.027344 3.160156 3.160156 3.671875 2.378906 C 3.875 2.039062 3.945312 1.632812 3.976562 1.222656 C 4.183594 0.171875 4.554688 -0.578125 5.132812 -1.496094 C 6.152344 -3.160156 7.582031 -4.386719 8.703125 -5.949219 C 8.601562 -2.550781 12.886719 -3.707031 14.347656 -5.371094 C 14.585938 -5.609375 14.753906 -5.914062 14.992188 -6.152344 C 15.46875 -6.5625 15.910156 -7.003906 16.285156 -7.511719 C 16.421875 -7.683594 16.660156 -7.886719 16.589844 -8.125 Z M 3.707031 -6.59375 C 3.671875 -5.78125 3.636719 -4.964844 3.535156 -4.183594 C 3.570312 -4.828125 3.46875 -5.574219 3.5 -6.253906 C 3.535156 -6.832031 3.535156 -7.34375 3.46875 -7.921875 C 3.433594 -8.195312 3.398438 -8.464844 3.296875 -8.703125 C 3.265625 -8.839844 3.058594 -9.042969 3.058594 -9.179688 C 3.058594 -9.28125 3.367188 -8.839844 3.398438 -8.804688 C 3.5 -8.636719 3.535156 -8.398438 3.570312 -8.195312 C 3.671875 -7.683594 3.738281 -7.140625 3.707031 -6.59375 Z M 3.5 -3.636719 C 3.46875 -3.636719 3.433594 -3.671875 3.46875 -3.773438 C 3.535156 -3.773438 3.535156 -3.738281 3.5 -3.636719 Z M 4.011719 -4.488281 L 4.011719 -4.996094 C 4.046875 -4.828125 4.046875 -4.65625 4.011719 -4.488281 Z M 3.910156 -7.207031 L 3.910156 -7.71875 C 3.875 -7.71875 3.910156 -7.511719 3.910156 -7.207031 Z M 3.945312 -6.800781 C 3.910156 -6.832031 3.910156 -6.832031 3.910156 -6.867188 L 3.910156 -6.933594 C 3.910156 -6.867188 3.945312 -6.832031 3.945312 -6.800781 Z M 3.945312 -6.800781 "/></g></g></g><g fill="#ffffff" fill-opacity="1"><g transform="translate(120.466696, 46.550199)"><g><path d="M 15.640625 -8.464844 C 15.640625 -8.464844 15.671875 -8.429688 15.640625 -8.5 C 15.46875 -8.738281 15.230469 -8.566406 14.992188 -8.5 C 14.007812 -8.296875 12.988281 -8.058594 11.96875 -7.886719 C 12.339844 -9.113281 12.714844 -10.402344 12.851562 -11.660156 C 12.917969 -12.136719 12.953125 -12.648438 12.851562 -13.121094 C 12.78125 -13.429688 12.679688 -13.734375 12.511719 -14.007812 C 12.511719 -14.007812 12.101562 -14.515625 12.207031 -14.246094 L 12.171875 -14.277344 L 12.035156 -14.550781 L 12.171875 -14.414062 C 12.207031 -14.617188 11.628906 -14.992188 11.628906 -14.992188 C 10.777344 -15.84375 9.621094 -16.488281 8.464844 -15.84375 C 7.75 -15.433594 7.171875 -14.753906 6.699219 -14.074219 C 6.527344 -13.835938 6.359375 -13.566406 6.222656 -13.292969 C 6.085938 -13.019531 5.882812 -12.136719 5.675781 -12 C 5.507812 -11.863281 4.996094 -11.832031 4.757812 -11.695312 C 4.417969 -11.558594 4.113281 -11.390625 3.839844 -11.183594 C 3.195312 -10.777344 2.6875 -10.199219 2.210938 -9.621094 C 1.394531 -8.535156 0.984375 -7.308594 0.40625 -6.222656 C -0.679688 -4.148438 0.511719 -1.429688 2.515625 -0.441406 C 3.160156 -0.136719 3.910156 0 4.589844 -0.0664062 C 5.304688 -0.171875 5.984375 -0.542969 6.527344 -0.953125 C 7.039062 -1.324219 8.160156 -2.003906 8.363281 -2.582031 C 8.363281 -2.617188 8.296875 -2.582031 8.195312 -2.480469 L 9.179688 -3.636719 C 9.214844 -3.605469 8.941406 -3.265625 8.941406 -3.265625 C 9.179688 -3.160156 10.402344 -4.964844 10.539062 -5.101562 C 10.777344 -5.507812 11.015625 -5.949219 11.289062 -6.359375 C 11.523438 -6.664062 11.457031 -6.628906 11.796875 -6.765625 C 11.761719 -6.730469 12.207031 -6.867188 12.273438 -6.867188 C 12.648438 -6.933594 16.625 -7.207031 15.640625 -8.464844 Z M 3.875 -1.597656 L 3.839844 -1.597656 C 1.019531 -1.191406 4.285156 -7.171875 4.351562 -7.511719 L 4.148438 -7.207031 C 4.65625 -8.226562 5.132812 -9.042969 5.371094 -9.316406 C 5.746094 -7.617188 7.582031 -6.96875 9.078125 -6.765625 C 8.089844 -4.792969 6.253906 -2.039062 3.875 -1.597656 Z M 10.574219 -11.015625 C 10.335938 -10.0625 10.132812 -8.804688 9.621094 -7.957031 C 9.453125 -7.617188 9.554688 -7.71875 9.214844 -7.648438 C 9.007812 -7.582031 8.566406 -7.648438 8.363281 -7.683594 C 7.988281 -7.71875 7.546875 -7.785156 7.277344 -8.023438 C 6.800781 -8.429688 6.867188 -9.078125 6.933594 -9.65625 C 7.003906 -10.234375 7.171875 -10.777344 7.378906 -11.320312 C 7.480469 -11.523438 8.125 -12.613281 8.023438 -12.816406 C 7.988281 -12.917969 7.617188 -12.308594 7.582031 -12.273438 C 7.785156 -12.648438 7.988281 -12.851562 8.160156 -13.089844 C 8.125 -13.089844 8.160156 -13.121094 8.195312 -13.191406 L 8.195312 -13.15625 L 8.226562 -13.226562 C 8.226562 -13.226562 8.226562 -13.257812 8.261719 -13.257812 C 8.769531 -13.9375 10.027344 -15.46875 10.710938 -14.414062 C 11.21875 -13.53125 10.742188 -11.863281 10.574219 -11.015625 Z M 8.226562 -13.226562 L 8.261719 -13.257812 C 8.261719 -13.226562 8.226562 -13.226562 8.226562 -13.226562 Z M 8.226562 -13.226562 "/></g></g></g><g fill="#ffffff" fill-opacity="1"><g transform="translate(133.759167, 46.550199)"><g><path d="M 13.804688 -17.679688 C 13.769531 -18.15625 13.257812 -17.78125 12.988281 -17.78125 C 11.628906 -17.710938 10.265625 -17.710938 8.941406 -17.644531 C 8.941406 -17.679688 9.007812 -17.816406 9.113281 -18.019531 C 8.976562 -17.78125 8.875 -17.644531 8.769531 -17.644531 C 9.792969 -19.71875 10.878906 -21.792969 12.171875 -23.695312 C 12.136719 -23.628906 11.628906 -22.777344 11.660156 -22.777344 C 11.761719 -22.746094 13.019531 -24.476562 13.054688 -24.714844 C 13.054688 -24.851562 12.75 -24.511719 12.75 -24.546875 C 12.953125 -24.75 13.292969 -24.921875 13.394531 -25.191406 C 13.632812 -25.871094 12.917969 -26.179688 12.410156 -26.28125 C 11.355469 -26.484375 10.164062 -26.347656 9.484375 -25.464844 C 8.839844 -24.683594 8.363281 -23.765625 7.957031 -22.847656 C 7.75 -22.4375 7.480469 -22.335938 7.207031 -21.960938 C 6.800781 -21.382812 6.527344 -20.703125 6.222656 -20.058594 C 5.949219 -19.480469 5.675781 -18.867188 5.441406 -18.257812 C 5.304688 -17.949219 5.304688 -17.710938 4.996094 -17.609375 C 4.691406 -17.476562 4.113281 -17.578125 3.773438 -17.542969 C 2.449219 -17.371094 1.15625 -17.441406 -0.171875 -17.304688 C -0.851562 -17.269531 -1.53125 -17.269531 -2.175781 -17.03125 C -2.3125 -17 -3.058594 -16.828125 -3.128906 -16.726562 C -3.332031 -16.351562 -2.515625 -16.320312 -2.347656 -16.285156 C -1.054688 -16.113281 0.578125 -15.980469 1.871094 -16.21875 C 2.753906 -16.386719 3.671875 -16.320312 4.625 -16.386719 C 4.148438 -15.367188 3.773438 -14.277344 3.398438 -13.191406 L 2.992188 -12 C 2.855469 -11.628906 2.414062 -10.914062 2.414062 -10.503906 C 2.414062 -10.4375 2.515625 -10.605469 2.582031 -10.777344 C 2.414062 -10.265625 2.210938 -9.757812 2.074219 -9.246094 C 2.074219 -9.28125 2.175781 -9.6875 2.140625 -9.6875 C 1.972656 -9.6875 1.292969 -7.617188 1.222656 -7.445312 C 0.882812 -6.425781 0.511719 -5.40625 0.339844 -4.316406 C 0.136719 -3.230469 -0.136719 -2.175781 -0.375 -1.121094 C -0.511719 -0.578125 -0.644531 -0.0664062 -0.714844 0.476562 C -0.78125 0.746094 -0.851562 1.054688 -0.851562 1.324219 C -0.851562 1.394531 -0.851562 1.835938 -0.78125 1.699219 L -0.851562 2.378906 L -0.851562 1.871094 C -1.054688 2.109375 -0.851562 3.195312 -0.816406 3.398438 C -0.679688 4.078125 -0.339844 4.691406 0.273438 5.101562 C 0.816406 5.507812 1.664062 5.882812 2.3125 5.574219 C 3.160156 5.167969 3.875 4.214844 4.417969 3.535156 C 5.609375 2.140625 6.699219 0.679688 7.785156 -0.78125 C 8.769531 -2.140625 9.792969 -3.46875 10.640625 -4.894531 C 11.117188 -5.710938 12.035156 -6.460938 12.339844 -7.378906 C 12.511719 -7.820312 12.410156 -8.363281 11.863281 -8.261719 C 11.421875 -8.160156 10.8125 -6.96875 10.539062 -6.628906 C 9.316406 -5.101562 8.160156 -3.535156 6.933594 -2.003906 L 4.964844 0.40625 C 4.65625 0.746094 4.351562 1.121094 4.011719 1.460938 C 3.875 1.632812 3.027344 2.3125 3.058594 2.515625 C 3.058594 2.582031 3.433594 2.277344 3.570312 2.175781 C 3.398438 2.378906 3.195312 2.550781 3.027344 2.71875 C 3.058594 2.6875 2.347656 3.09375 2.242188 3.027344 C 1.597656 2.753906 2.175781 0.78125 2.277344 0.304688 C 2.890625 -2.449219 3.808594 -5.234375 4.726562 -7.886719 C 5.269531 -9.347656 5.8125 -10.742188 6.425781 -12.171875 C 6.730469 -12.886719 7.039062 -13.632812 7.378906 -14.347656 L 7.851562 -15.640625 L 7.480469 -14.890625 C 7.71875 -15.503906 8.058594 -16.421875 8.261719 -16.453125 L 8.160156 -16.25 C 8.226562 -16.351562 8.296875 -16.421875 8.363281 -16.453125 C 8.738281 -16.691406 9.6875 -16.453125 10.132812 -16.453125 C 10.4375 -16.453125 10.8125 -16.421875 11.117188 -16.523438 C 11.320312 -16.589844 11.253906 -16.691406 11.492188 -16.761719 C 11.898438 -16.828125 12.410156 -16.558594 12.851562 -16.691406 C 13.257812 -16.792969 13.835938 -17.167969 13.804688 -17.644531 Z M 7.34375 -15.707031 C 5.8125 -12.476562 4.65625 -9.007812 3.433594 -5.644531 C 2.855469 -4.113281 2.3125 -2.515625 1.9375 -0.917969 L 1.769531 -0.273438 C 2.003906 -1.496094 2.277344 -2.6875 2.617188 -3.875 C 3.367188 -6.492188 4.316406 -9.078125 5.441406 -11.558594 C 7.34375 -15.808594 9.042969 -20.363281 11.761719 -24.207031 C 9.925781 -21.589844 8.703125 -18.597656 7.34375 -15.707031 Z M 9.585938 -19.074219 L 10.402344 -20.636719 C 10.234375 -20.601562 9.925781 -19.855469 9.585938 -19.074219 Z M 6.085938 -11.660156 C 5.847656 -11.015625 5.574219 -10.402344 5.304688 -9.792969 C 5.574219 -10.4375 5.8125 -11.117188 6.121094 -11.796875 C 6.085938 -11.730469 6.085938 -11.695312 6.085938 -11.660156 Z M 9.144531 -18.085938 L 9.484375 -18.835938 C 9.382812 -18.5625 9.246094 -18.289062 9.144531 -18.085938 Z M 1.734375 3.332031 C 1.699219 3.332031 1.664062 3.296875 1.632812 3.265625 Z M 1.734375 3.332031 "/></g></g></g><g fill="#ffffff" fill-opacity="1"><g transform="translate(144.195972, 46.550199)"><g><path d="M 13.019531 -8.398438 C 13.019531 -8.363281 13.019531 -8.363281 12.988281 -8.398438 L 12.988281 -8.429688 C 12.441406 -9.347656 11.730469 -8.089844 11.421875 -7.648438 C 10.84375 -6.867188 10.300781 -6.121094 9.6875 -5.40625 C 9.179688 -4.792969 8.636719 -4.183594 8.226562 -3.535156 C 8.226562 -3.46875 8.160156 -3.296875 8.160156 -3.296875 C 8.023438 -3.09375 7.820312 -2.921875 7.648438 -2.71875 C 7.34375 -2.414062 7.039062 -2.074219 6.699219 -1.769531 C 6.1875 -1.292969 3.332031 1.394531 2.957031 -0.339844 C 2.753906 -1.191406 3.027344 -2.242188 3.195312 -3.058594 C 3.296875 -3.5 3.398438 -3.910156 3.46875 -4.351562 C 3.535156 -4.691406 3.433594 -5.03125 3.605469 -5.371094 C 3.707031 -5.574219 3.738281 -5.542969 3.976562 -5.609375 L 4.554688 -5.8125 C 4.929688 -5.949219 5.304688 -6.085938 5.644531 -6.289062 C 6.152344 -6.59375 6.628906 -6.96875 7.070312 -7.34375 C 8.125 -8.226562 9.246094 -9.28125 9.6875 -10.605469 C 9.925781 -11.355469 9.960938 -12.171875 9.484375 -12.816406 C 9.042969 -13.394531 8.296875 -13.699219 7.617188 -13.835938 C 5.78125 -14.175781 4.386719 -13.121094 3.332031 -11.730469 C 2.039062 -10.132812 1.121094 -8.160156 0.679688 -6.152344 C 0.441406 -5.167969 0.304688 -4.183594 0.136719 -3.160156 C -0.0351562 -2.140625 -0.136719 -1.191406 0.40625 -0.238281 C 0.375 -0.578125 0.304688 -0.882812 0.304688 -1.191406 C 0.304688 -1.359375 0.375 -1.53125 0.375 -1.664062 C 0.375 -1.734375 0.304688 -1.9375 0.304688 -2.039062 C 0.304688 -2.347656 0.375 -2.582031 0.441406 -2.890625 C 0.476562 -3.195312 0.441406 -3.5 0.476562 -3.808594 C 0.511719 -4.148438 0.644531 -4.417969 0.78125 -4.726562 C 0.882812 -4.996094 0.917969 -5.234375 1.019531 -5.507812 C 1.121094 -5.746094 1.191406 -6.015625 1.292969 -6.289062 C 1.324219 -6.460938 1.496094 -6.664062 1.597656 -6.867188 C 1.496094 -6.5625 1.292969 -6.289062 1.222656 -6.015625 C 1.121094 -5.609375 1.191406 -5.167969 1.15625 -4.757812 C 1.089844 -4.316406 0.953125 -3.875 0.882812 -3.398438 C 0.816406 -2.957031 0.613281 -2.550781 0.542969 -2.109375 C 0.476562 -1.699219 0.339844 -1.394531 0.375 -0.984375 C 0.375 -0.746094 0.40625 -0.511719 0.441406 -0.304688 C 0.476562 -0.0351562 0.644531 0.136719 0.816406 0.339844 C 1.394531 1.019531 2.175781 1.5625 3.058594 1.800781 C 3.671875 1.972656 4.214844 1.9375 4.792969 1.632812 C 5.609375 1.191406 6.324219 0.511719 6.933594 -0.136719 C 7.511719 -0.78125 7.957031 -1.496094 8.464844 -2.175781 C 8.941406 -2.789062 9.519531 -3.367188 9.996094 -3.976562 L 11.832031 -6.359375 L 12.886719 -7.75 C 13.054688 -7.957031 13.15625 -8.125 13.019531 -8.398438 Z M 4.589844 -8.023438 C 4.625 -8.089844 4.625 -8.125 4.625 -8.125 C 5.132812 -9.214844 5.507812 -10.371094 6.222656 -11.421875 L 6.832031 -12.238281 C 6.96875 -12.410156 7.207031 -12.714844 7.445312 -12.78125 C 7.957031 -12.886719 8.089844 -12 8.058594 -11.660156 L 7.921875 -10.945312 C 7.886719 -10.742188 7.957031 -10.605469 7.921875 -10.4375 C 7.851562 -10.234375 7.683594 -10.132812 7.582031 -9.960938 L 7.003906 -9.214844 C 6.222656 -8.296875 5.234375 -7.511719 4.148438 -6.933594 C 4.316406 -7.308594 4.417969 -7.683594 4.589844 -8.023438 Z M 4.589844 -8.023438 "/></g></g></g></svg>